Simulation
nRows=24
nColumns=15
endheader
time  TH_x TH_y TH_z SC_y  SC_z  SC_x  AC_y  AC_z  AC_x  GH_y  GH_z  GH_yy  EL_x  PS_y
0.0  0.000000  0.000000  0.000000  -32.57367311618661  -0.36786133177033886  2.6095956631787276  45.042336649954876  6.707325071260338  -4.055878740630788  -105.93998094780788  0.6869625597088148  124.59568094249718  22.330993320014475  0.000000
0.03  0.000000  0.000000  0.000000  -32.508120370308994  -0.1826989524751839  2.6126266904135593  44.88784675656555  6.9591836688895885  -3.984237440470535  -76.00642667252085  0.6817474354640329  94.76030752814485  22.454514700489874  0.000000
0.06  0.000000  0.000000  0.000000  -32.38005688196303  -0.10882750173085808  2.5423903360556657  44.790299172515454  7.071220782648621  -3.931507104927374  -45.15305496022962  0.8854698082808268  64.1081710287989  22.638434817718796  0.000000
0.09  0.000000  0.000000  0.000000  -32.36728825707846  -0.09688104232000386  2.4302512764487108  44.72578430956449  7.033258240138883  -3.8583531239544664  -23.957863623881025  1.3424691535932922  43.110665237592734  22.836221932419623  0.000000
0.12  0.000000  0.000000  0.000000  -32.40767796208941  -0.13749075943159067  2.2910254964095764  44.670122506589784  6.896454675883326  -3.785613099968424  -12.820065125122465  2.02929891747178  32.09728467992987  23.02426478576419  0.000000
0.15  0.000000  0.000000  0.000000  -32.49796536626922  -0.1988787232117366  2.1446368099834845  44.64909352133132  6.69384481503619  -3.716299846105777  -6.833863461689361  2.9250484962315944  26.116720414363296  23.18627986259912  0.000000
0.18  0.000000  0.000000  0.000000  -32.62486007983794  -0.252542433217827  2.010539140855942  44.652058594886405  6.463387182569352  -3.6409375350250817  -3.6443718362564033  4.023019729061515  22.767377554497674  23.341944702639044  0.000000
0.21  0.000000  0.000000  0.000000  -32.782735567118664  -0.28451203158014  1.9101371992521192  44.689036950842194  6.232469335307999  -3.550822418266242  -1.9769133590741654  5.325590742867428  20.738201462176175  23.4852509509519  0.000000
0.24  0.000000  0.000000  0.000000  -32.96184937666752  -0.29025425004753846  1.8594637607991717  44.769392875178916  6.0303491327423675  -3.4446597711028284  -1.2611781714151447  6.832612387019524  19.43177893379845  23.645628090828946  0.000000
0.27  0.000000  0.000000  0.000000  -33.16035590465527  -0.2688181957373199  1.8771501961033277  44.9113656751543  5.872089872328869  -3.3221412648493387  -1.2045929630952843  8.544722143268107  18.545607524925884  23.849774773324423  0.000000
0.3  0.000000  0.000000  0.000000  -33.374212552395896  -0.22494765485371832  1.9736755751661121  45.11672626939739  5.7733578972247965  -3.190567576385573  -1.5999770833366587  10.455244154965953  17.869270343311392  24.134835306571645  0.000000
0.32999999999999996  0.000000  0.000000  0.000000  -33.59939885008019  -0.15920510551134745  2.152381596052709  45.37568045273319  5.744846830903811  -3.062524457588184  -2.234140811321607  12.548252847314856  17.218519251339202  24.507016415807474  0.000000
0.36  0.000000  0.000000  0.000000  -33.82463528155292  -0.06544729706346973  2.4014883856270757  45.64820960348  5.800573484744909  -2.950814639473263  -2.868541597116015  14.790821097526111  16.414015249784434  24.932498801478296  0.000000
0.39  0.000000  0.000000  0.000000  -34.03952719421966  0.06607205496623063  2.6990475272702037  45.887246931648306  5.954231028122006  -2.8672421029643274  -3.287221571280082  17.14069283390177  15.332361666042136  25.33184895952057  0.000000
0.42  0.000000  0.000000  0.000000  -34.2351235433549  0.24256190026892557  3.025657136546367  46.050164997199474  6.214339983427395  -2.8167172019052074  -3.36828302026599  19.55182308613703  13.950730257978792  25.620562664835894  0.000000
0.44999999999999996  0.000000  0.000000  0.000000  -34.40961040774742  0.4649753688356101  3.3691660792702063  46.125502974716106  6.577757395032305  -2.7953720230426278  -3.107323450223486  21.98750286213974  12.34416054051999  25.739406060723173  0.000000
0.48  0.000000  0.000000  0.000000  -34.56220084340246  0.7231708149615237  3.7287727317206834  46.12738636286006  7.033271276890419  -2.7927574818785534  -2.609420630715601  24.42266748751221  10.66312432084951  25.680350608073088  0.000000
0.51  0.000000  0.000000  0.000000  -34.69479775018592  1.0033045460446137  4.111996179326468  46.088012992142396  7.559569739310607  -2.7981563582856577  -2.0198812997554594  26.841580580782338  9.06941061095849  25.4675327616566  0.000000
0.54  0.000000  0.000000  0.000000  -34.81329194715231  1.2919746404008094  4.527362384785547  46.03614819855094  8.132769315215995  -2.804924926341545  -1.4471786054901101  29.229859804412218  7.671327607208444  25.13780781052994  0.000000
0.57  0.000000  0.000000  0.000000  -34.93074768736348  1.5774988123988196  4.970200921055627  45.98494607687361  8.737554274916059  -2.8059096040919886  -0.9386810492002371  31.572929328969778  6.506220906693889  24.72391600484067  0.000000
0.6  0.000000  0.000000  0.000000  -35.06142376795115  1.8549224177327766  5.419955759056709  45.93531945256721  9.370471008821152  -2.7886320814927954  -0.48375813013951635  33.852322336663654  5.549139382139574  24.25158890952013  0.000000
0.63  0.000000  0.000000  0.000000  -35.217964835449166  2.127702537257163  5.8661501377868825  45.883908996428644  10.021157429535013  -2.740780687602061  -0.05202844911416962  36.04776748349342  4.752473689013265  23.743452957506126  0.000000
0.6599999999999999  0.000000  0.000000  0.000000  -35.40474572139475  2.4027125510526433  6.3103408738614535  45.83379366934742  10.676993478981814  -2.658109343644491  0.38155396265798736  38.13917850463938  4.07133569553029  23.225786466663532  0.000000
0.69  0.000000  0.000000  0.000000  -35.62594990227408  2.6851460369978786  6.7579527852638215  45.789429698300694  11.329250879894543  -2.5330025889595835  0.8192330141674787  40.1106597541036  3.4816905591520504  22.73106728758002  0.000000
